<svg width="362" height="351" viewBox="0 0 362 351" fill="none" xmlns="http://www.w3.org/2000/svg">
<rect width="362" height="351" rx="25" fill="black"/>
<path d="M114.907 198.945C114.907 196.538 114.529 194.414 113.774 192.573C113.066 190.685 111.792 188.986 109.951 187.476C108.157 185.965 105.655 184.526 102.446 183.157C99.2834 181.788 95.2713 180.396 90.4097 178.979C85.312 177.469 80.71 175.793 76.6035 173.953C72.4971 172.065 68.9806 169.917 66.0542 167.51C63.1278 165.103 60.8857 162.341 59.3281 159.226C57.7705 156.111 56.9917 152.547 56.9917 148.535C56.9917 144.523 57.8177 140.818 59.4697 137.419C61.1217 134.021 63.4818 131.071 66.5498 128.569C69.665 126.021 73.3703 124.038 77.6655 122.622C81.9608 121.206 86.7516 120.498 92.0381 120.498C99.779 120.498 106.34 121.985 111.721 124.958C117.149 127.885 121.279 131.732 124.111 136.499C126.943 141.219 128.359 146.27 128.359 151.65H114.765C114.765 147.78 113.939 144.358 112.287 141.384C110.635 138.363 108.133 136.003 104.782 134.304C101.431 132.558 97.1829 131.685 92.0381 131.685C87.1764 131.685 83.1644 132.416 80.002 133.879C76.8395 135.343 74.4795 137.325 72.9219 139.827C71.4115 142.328 70.6562 145.184 70.6562 148.394C70.6562 150.565 71.1047 152.547 72.0015 154.341C72.9455 156.087 74.3851 157.716 76.3203 159.226C78.3027 160.736 80.8044 162.129 83.8252 163.403C86.8932 164.678 90.5513 165.905 94.7993 167.085C100.652 168.737 105.703 170.578 109.951 172.607C114.199 174.637 117.692 176.926 120.429 179.475C123.214 181.977 125.267 184.832 126.589 188.042C127.958 191.204 128.642 194.792 128.642 198.804C128.642 203.005 127.792 206.804 126.093 210.203C124.394 213.601 121.963 216.504 118.801 218.911C115.638 221.318 111.839 223.183 107.402 224.504C103.012 225.779 98.1034 226.416 92.6753 226.416C87.908 226.416 83.2116 225.755 78.5859 224.434C74.0075 223.112 69.8302 221.13 66.0542 218.486C62.3254 215.843 59.3281 212.586 57.0625 208.716C54.8441 204.798 53.7349 200.267 53.7349 195.122H67.3286C67.3286 198.662 68.013 201.707 69.3818 204.255C70.7507 206.757 72.6151 208.834 74.9751 210.486C77.3823 212.138 80.0964 213.365 83.1172 214.167C86.1852 214.923 89.3713 215.3 92.6753 215.3C97.4425 215.3 101.478 214.639 104.782 213.318C108.086 211.996 110.588 210.108 112.287 207.654C114.034 205.199 114.907 202.297 114.907 198.945ZM198.947 213.176L225.144 233.921L215.939 242.417L190.168 221.956L198.947 213.176ZM224.79 170.2V176.714C224.79 184.455 223.822 191.393 221.887 197.529C219.951 203.665 217.167 208.881 213.532 213.176C209.898 217.472 205.532 220.752 200.434 223.018C195.384 225.283 189.72 226.416 183.442 226.416C177.353 226.416 171.76 225.283 166.662 223.018C161.612 220.752 157.222 217.472 153.493 213.176C149.812 208.881 146.956 203.665 144.926 197.529C142.897 191.393 141.882 184.455 141.882 176.714V170.2C141.882 162.459 142.873 155.544 144.855 149.456C146.885 143.319 149.741 138.104 153.422 133.809C157.104 129.466 161.47 126.162 166.521 123.896C171.618 121.631 177.211 120.498 183.3 120.498C189.578 120.498 195.266 121.631 200.363 123.896C205.461 126.162 209.827 129.466 213.461 133.809C217.096 138.104 219.881 143.319 221.816 149.456C223.798 155.544 224.79 162.459 224.79 170.2ZM211.267 176.714V170.059C211.267 163.923 210.629 158.494 209.355 153.774C208.128 149.054 206.311 145.09 203.903 141.88C201.496 138.67 198.57 136.239 195.124 134.587C191.678 132.935 187.737 132.109 183.3 132.109C179.099 132.109 175.276 132.935 171.831 134.587C168.432 136.239 165.506 138.67 163.051 141.88C160.597 145.09 158.709 149.054 157.387 153.774C156.066 158.494 155.405 163.923 155.405 170.059V176.714C155.405 182.897 156.066 188.372 157.387 193.14C158.709 197.86 160.597 201.848 163.051 205.105C165.553 208.315 168.527 210.745 171.972 212.397C175.418 214.049 179.241 214.875 183.442 214.875C187.879 214.875 191.82 214.049 195.266 212.397C198.711 210.745 201.614 208.315 203.974 205.105C206.381 201.848 208.199 197.86 209.426 193.14C210.653 188.372 211.267 182.897 211.267 176.714ZM308.405 213.884V225H256.862V213.884H308.405ZM259.553 121.914V225H245.888V121.914H259.553Z" fill="#141C31"/>
</svg>
